<svg width="23" height="23" viewBox="0 0 23 23" fill="none" xmlns="http://www.w3.org/2000/svg">
<g id="user-profile 1" clip-path="url(#clip0_2_109)">
<g id="Group">
<path id="Vector" d="M8.04995 9.2C10.58 9.2 12.65 7.13 12.65 4.6C12.65 2.07 10.58 0 8.04995 0C5.51995 0 3.44995 2.07 3.44995 4.6C3.44995 7.13 5.51995 9.2 8.04995 9.2ZM8.04995 2.3C9.31495 2.3 10.35 3.335 10.35 4.6C10.35 5.865 9.31495 6.9 8.04995 6.9C6.78495 6.9 5.74995 5.865 5.74995 4.6C5.74995 3.335 6.78495 2.3 8.04995 2.3Z" fill="#747474"/>
<path id="Vector_2" d="M21.965 10.235C20.7 8.97 18.4 8.97 17.135 10.235L14.145 13.225C12.65 11.385 10.465 10.35 8.05 10.35C3.565 10.35 0 13.915 0 18.4V19.55H9.2V23H14.03L21.965 15.065C23.345 13.8 23.345 11.5 21.965 10.235ZM8.05 12.65C9.775 12.65 11.385 13.455 12.535 14.835L10.12 17.25H2.415C2.99 14.605 5.29 12.65 8.05 12.65ZM13.11 20.7H11.5V19.09L16.33 14.26L17.94 15.87L13.11 20.7ZM20.355 13.455L19.55 14.26L17.94 12.65L18.745 11.845C19.205 11.385 19.895 11.385 20.355 11.845C20.815 12.305 20.815 12.995 20.355 13.455Z" fill="#747474"/>
</g>
</g>
<defs>
<clipPath id="clip0_2_109">
<rect width="23" height="23" fill="white"/>
</clipPath>
</defs>
</svg>
