<svg width="23" height="23" viewBox="0 0 23 23" fill="none" xmlns="http://www.w3.org/2000/svg">
<g id="delete 1">
<path id="Vector" d="M18.2084 6.70831C17.9542 6.70831 17.7104 6.80928 17.5307 6.989C17.351 7.16873 17.25 7.41248 17.25 7.66665V18.3914C17.2225 18.876 17.0047 19.3301 16.6439 19.6548C16.2831 19.9795 15.8086 20.1485 15.3238 20.125H7.67629C7.19146 20.1485 6.71698 19.9795 6.35619 19.6548C5.9954 19.3301 5.77753 18.876 5.75004 18.3914V7.66665C5.75004 7.41248 5.64907 7.16873 5.46935 6.989C5.28963 6.80928 5.04587 6.70831 4.79171 6.70831C4.53754 6.70831 4.29379 6.80928 4.11406 6.989C3.93434 7.16873 3.83337 7.41248 3.83337 7.66665V18.3914C3.86073 19.3844 4.28052 20.3262 5.0008 21.0103C5.72108 21.6945 6.68314 22.0654 7.67629 22.0417H15.3238C16.3169 22.0654 17.279 21.6945 17.9993 21.0103C18.7196 20.3262 19.1393 19.3844 19.1667 18.3914V7.66665C19.1667 7.41248 19.0657 7.16873 18.886 6.989C18.7063 6.80928 18.4625 6.70831 18.2084 6.70831Z" fill="#747474"/>
<path id="Vector_2" d="M19.1667 3.83331H15.3333V1.91665C15.3333 1.66248 15.2324 1.41872 15.0526 1.239C14.8729 1.05928 14.6292 0.958313 14.375 0.958313H8.625C8.37083 0.958313 8.12708 1.05928 7.94735 1.239C7.76763 1.41872 7.66666 1.66248 7.66666 1.91665V3.83331H3.83333C3.57917 3.83331 3.33541 3.93428 3.15569 4.114C2.97597 4.29372 2.875 4.53748 2.875 4.79165C2.875 5.04581 2.97597 5.28957 3.15569 5.46929C3.33541 5.64901 3.57917 5.74998 3.83333 5.74998H19.1667C19.4208 5.74998 19.6646 5.64901 19.8443 5.46929C20.024 5.28957 20.125 5.04581 20.125 4.79165C20.125 4.53748 20.024 4.29372 19.8443 4.114C19.6646 3.93428 19.4208 3.83331 19.1667 3.83331ZM9.58333 3.83331V2.87498H13.4167V3.83331H9.58333Z" fill="#747474"/>
<path id="Vector_3" d="M10.5417 16.2917V9.58333C10.5417 9.32917 10.4407 9.08541 10.261 8.90569C10.0813 8.72597 9.8375 8.625 9.58333 8.625C9.32917 8.625 9.08541 8.72597 8.90569 8.90569C8.72597 9.08541 8.625 9.32917 8.625 9.58333V16.2917C8.625 16.5458 8.72597 16.7896 8.90569 16.9693C9.08541 17.149 9.32917 17.25 9.58333 17.25C9.8375 17.25 10.0813 17.149 10.261 16.9693C10.4407 16.7896 10.5417 16.5458 10.5417 16.2917Z" fill="#747474"/>
<path id="Vector_4" d="M14.3751 16.2917V9.58333C14.3751 9.32917 14.2741 9.08541 14.0944 8.90569C13.9146 8.72597 13.6709 8.625 13.4167 8.625C13.1625 8.625 12.9188 8.72597 12.7391 8.90569C12.5593 9.08541 12.4584 9.32917 12.4584 9.58333V16.2917C12.4584 16.5458 12.5593 16.7896 12.7391 16.9693C12.9188 17.149 13.1625 17.25 13.4167 17.25C13.6709 17.25 13.9146 17.149 14.0944 16.9693C14.2741 16.7896 14.3751 16.5458 14.3751 16.2917Z" fill="#747474"/>
</g>
</svg>
