<svg width="65" height="65" viewBox="0 0 65 65" fill="none" xmlns="http://www.w3.org/2000/svg">
<g id="delete 2">
<path id="Vector" d="M51.4583 18.9583C50.74 18.9583 50.0511 19.2437 49.5432 19.7516C49.0353 20.2595 48.7499 20.9484 48.7499 21.6666V51.9756C48.6723 53.3452 48.0565 54.6286 47.0369 55.5463C46.0173 56.4639 44.6764 56.9415 43.3062 56.875H21.6937C20.3236 56.9415 18.9826 56.4639 17.963 55.5463C16.9434 54.6286 16.3277 53.3452 16.25 51.9756V21.6666C16.25 20.9484 15.9646 20.2595 15.4567 19.7516C14.9488 19.2437 14.2599 18.9583 13.5416 18.9583C12.8233 18.9583 12.1345 19.2437 11.6266 19.7516C11.1187 20.2595 10.8333 20.9484 10.8333 21.6666V51.9756C10.9106 54.7821 12.097 57.4435 14.1325 59.3771C16.1681 61.3106 18.887 62.3587 21.6937 62.2917H43.3062C46.1129 62.3587 48.8318 61.3106 50.8674 59.3771C52.903 57.4435 54.0893 54.7821 54.1666 51.9756V21.6666C54.1666 20.9484 53.8813 20.2595 53.3734 19.7516C52.8654 19.2437 52.1766 18.9583 51.4583 18.9583Z" fill="white"/>
<path id="Vector_2" d="M54.1666 10.8333H43.3333V5.41665C43.3333 4.69835 43.048 4.00948 42.5401 3.50157C42.0322 2.99365 41.3433 2.70831 40.625 2.70831H24.375C23.6567 2.70831 22.9678 2.99365 22.4599 3.50157C21.952 4.00948 21.6667 4.69835 21.6667 5.41665V10.8333H10.8333C10.115 10.8333 9.42616 11.1187 8.91825 11.6266C8.41034 12.1345 8.125 12.8233 8.125 13.5416C8.125 14.2599 8.41034 14.9488 8.91825 15.4567C9.42616 15.9646 10.115 16.25 10.8333 16.25H54.1666C54.8849 16.25 55.5738 15.9646 56.0817 15.4567C56.5896 14.9488 56.875 14.2599 56.875 13.5416C56.875 12.8233 56.5896 12.1345 56.0817 11.6266C55.5738 11.1187 54.8849 10.8333 54.1666 10.8333ZM27.0833 10.8333V8.12498H37.9167V10.8333H27.0833Z" fill="white"/>
<path id="Vector_3" d="M29.7917 46.0417V27.0833C29.7917 26.365 29.5063 25.6762 28.9984 25.1683C28.4905 24.6603 27.8016 24.375 27.0833 24.375C26.365 24.375 25.6762 24.6603 25.1683 25.1683C24.6603 25.6762 24.375 26.365 24.375 27.0833V46.0417C24.375 46.76 24.6603 47.4488 25.1683 47.9567C25.6762 48.4647 26.365 48.75 27.0833 48.75C27.8016 48.75 28.4905 48.4647 28.9984 47.9567C29.5063 47.4488 29.7917 46.76 29.7917 46.0417Z" fill="white"/>
<path id="Vector_4" d="M40.625 46.0417V27.0833C40.625 26.365 40.3397 25.6762 39.8318 25.1683C39.3238 24.6603 38.635 24.375 37.9167 24.375C37.1984 24.375 36.5095 24.6603 36.0016 25.1683C35.4937 25.6762 35.2083 26.365 35.2083 27.0833V46.0417C35.2083 46.76 35.4937 47.4488 36.0016 47.9567C36.5095 48.4647 37.1984 48.75 37.9167 48.75C38.635 48.75 39.3238 48.4647 39.8318 47.9567C40.3397 47.4488 40.625 46.76 40.625 46.0417Z" fill="white"/>
</g>
</svg>
